<?xml version="1.0" encoding="utf-8"?>
<!-- Svg Vector Icons : http://www.onlinewebfonts.com/icon -->
<!DOCTYPE svg PUBLIC "-//W3C//DTD SVG 1.1//EN" "http://www.w3.org/Graphics/SVG/1.1/DTD/svg11.dtd">
<svg version="1.1" xmlns="http://www.w3.org/2000/svg" xmlns:xlink="http://www.w3.org/1999/xlink" x="0px" y="0px" viewBox="0 0 1000 1000" enable-background="new 0 0 1000 1000" xml:space="preserve">
<metadata> Svg Vector Icons : http://www.onlinewebfonts.com/icon </metadata>
<g><g transform="translate(0.000000,511.000000) scale(0.100000,-0.100000)"><path d="M2530.6,4986.9c-277.2-88.3-451.8-287.5-499-568.8c-12.3-86.2-20.5-1203.4-20.5-3252.8v-3121.4l359.4,359.4l359.4,359.4v2601.8v2603.9h2094.6h2094.6v-507.2v-509.3l361.4,359.4l361.4,359.4l-10.3,390.2c-6.2,338.8-14.4,404.6-53.4,505.2c-61.6,164.3-180.7,291.6-347,371.7l-137.6,67.8l-2238.4,4.1C3044,5011.6,2600.5,5007.5,2530.6,4986.9z M4066.7,4607c63.7-63.7,73.9-121.2,34.9-193c-84.2-160.2-326.5-106.8-324.5,71.9C3779.2,4650.2,3951.7,4722,4066.7,4607z M5775.3,4641.9c108.8-57.5,131.4-188.9,45.2-273.1l-49.3-51.3h-597.6H4576l-49.3,51.3c-71.9,69.8-67.8,160.2,8.2,238.2l59.6,59.6h568.8C5555.5,4666.6,5744.4,4658.4,5775.3,4641.9z"/><path d="M9106.1,4627.6c-32.9-20.5-1952.9-1932.4-4265.2-4244.7C1783.2-2679,633.2-3841.2,622.9-3884.4c-28.8-117.1,94.5-236.2,213.6-207.4c61.6,14.4,8464.7,8396.9,8518.1,8495.5c43.1,82.1,34.9,135.5-30.8,203.3C9254,4676.9,9192.4,4683,9106.1,4627.6z"/><path d="M7274.3,1808l-355.3-355.3V-976.6v-2427.3H4824.5H2729.8v332.7v334.7l-359.4-359.4l-359.4-359.4v-320.4c0-174.6,10.3-373.8,22.6-441.5c43.1-236.2,182.8-412.8,406.6-519.6l115-53.4h2269.2h2269.2l137.6,67.8c164.3,80.1,283.4,207.4,349.1,371.7l47.2,115l6.2,2721c2.1,1497,2.1,2936.6,0,3199.4l-6.2,476.4L7274.3,1808z M5025.7-3812.5c37-24.6,84.2-82.1,106.8-125.3c170.4-334.7-248.5-669.5-527.8-425.1c-203.3,178.7-154,492.8,96.5,595.5C4769-3738.6,4960-3765.3,5025.7-3812.5z"/></g></g>
</svg>